<?xml version="1.0" encoding="utf-8" standalone="no"?>
<!DOCTYPE svg PUBLIC "-//W3C//DTD SVG 1.1//EN"
  "http://www.w3.org/Graphics/SVG/1.1/DTD/svg11.dtd">
<!-- Created with matplotlib (https://matplotlib.org/) -->
<svg height="266.520469pt" version="1.1" viewBox="0 0 395.222031 266.520469" width="395.222031pt" xmlns="http://www.w3.org/2000/svg" xmlns:xlink="http://www.w3.org/1999/xlink">
 <metadata>
  <rdf:RDF xmlns:cc="http://creativecommons.org/ns#" xmlns:dc="http://purl.org/dc/elements/1.1/" xmlns:rdf="http://www.w3.org/1999/02/22-rdf-syntax-ns#">
   <cc:Work>
    <dc:type rdf:resource="http://purl.org/dc/dcmitype/StillImage"/>
    <dc:date>2021-05-04T18:18:29.892330</dc:date>
    <dc:format>image/svg+xml</dc:format>
    <dc:creator>
     <cc:Agent>
      <dc:title>Matplotlib v3.3.3, https://matplotlib.org/</dc:title>
     </cc:Agent>
    </dc:creator>
   </cc:Work>
  </rdf:RDF>
 </metadata>
 <defs>
  <style type="text/css">*{stroke-linecap:butt;stroke-linejoin:round;}</style>
 </defs>
 <g id="figure_1">
  <g id="patch_1">
   <path d="M 0 266.520469 
L 395.222031 266.520469 
L 395.222031 0 
L 0 0 
z
" style="fill:#ffffff;"/>
  </g>
  <g id="axes_1">
   <g id="patch_2">
    <path d="M 53.222031 224.64 
L 388.022031 224.64 
L 388.022031 7.2 
L 53.222031 7.2 
z
" style="fill:#ffffff;"/>
   </g>
   <g id="matplotlib.axis_1">
    <g id="xtick_1">
     <g id="line2d_1">
      <defs>
       <path d="M 0 0 
L 0 6 
" id="m9cc9e4b3b0" style="stroke:#262626;stroke-width:1.25;"/>
      </defs>
      <g>
       <use style="fill:#262626;stroke:#262626;stroke-width:1.25;" x="66.910748" xlink:href="#m9cc9e4b3b0" y="224.64"/>
      </g>
     </g>
     <g id="text_1">
      <!-- 0 -->
      <g style="fill:#262626;" transform="translate(63.852232 242.013594)scale(0.11 -0.11)">
       <defs>
        <path d="M 4.15625 35.296875 
Q 4.15625 48 6.765625 55.734375 
Q 9.375 63.484375 14.515625 67.671875 
Q 19.671875 71.875 27.484375 71.875 
Q 33.25 71.875 37.59375 69.546875 
Q 41.9375 67.234375 44.765625 62.859375 
Q 47.609375 58.5 49.21875 52.21875 
Q 50.828125 45.953125 50.828125 35.296875 
Q 50.828125 22.703125 48.234375 14.96875 
Q 45.65625 7.234375 40.5 3 
Q 35.359375 -1.21875 27.484375 -1.21875 
Q 17.140625 -1.21875 11.234375 6.203125 
Q 4.15625 15.140625 4.15625 35.296875 
z
M 13.1875 35.296875 
Q 13.1875 17.671875 17.3125 11.828125 
Q 21.4375 6 27.484375 6 
Q 33.546875 6 37.671875 11.859375 
Q 41.796875 17.71875 41.796875 35.296875 
Q 41.796875 52.984375 37.671875 58.78125 
Q 33.546875 64.59375 27.390625 64.59375 
Q 21.34375 64.59375 17.71875 59.46875 
Q 13.1875 52.9375 13.1875 35.296875 
z
" id="ArialMT-48"/>
       </defs>
       <use xlink:href="#ArialMT-48"/>
      </g>
     </g>
    </g>
    <g id="xtick_2">
     <g id="line2d_2">
      <g>
       <use style="fill:#262626;stroke:#262626;stroke-width:1.25;" x="105.147385" xlink:href="#m9cc9e4b3b0" y="224.64"/>
      </g>
     </g>
     <g id="text_2">
      <!-- 25 -->
      <g style="fill:#262626;" transform="translate(99.030354 242.013594)scale(0.11 -0.11)">
       <defs>
        <path d="M 50.34375 8.453125 
L 50.34375 0 
L 3.03125 0 
Q 2.9375 3.171875 4.046875 6.109375 
Q 5.859375 10.9375 9.828125 15.625 
Q 13.8125 20.3125 21.34375 26.46875 
Q 33.015625 36.03125 37.109375 41.625 
Q 41.21875 47.21875 41.21875 52.203125 
Q 41.21875 57.421875 37.46875 61 
Q 33.734375 64.59375 27.734375 64.59375 
Q 21.390625 64.59375 17.578125 60.78125 
Q 13.765625 56.984375 13.71875 50.25 
L 4.6875 51.171875 
Q 5.609375 61.28125 11.65625 66.578125 
Q 17.71875 71.875 27.9375 71.875 
Q 38.234375 71.875 44.234375 66.15625 
Q 50.25 60.453125 50.25 52 
Q 50.25 47.703125 48.484375 43.546875 
Q 46.734375 39.40625 42.65625 34.8125 
Q 38.578125 30.21875 29.109375 22.21875 
Q 21.1875 15.578125 18.9375 13.203125 
Q 16.703125 10.84375 15.234375 8.453125 
z
" id="ArialMT-50"/>
        <path d="M 4.15625 18.75 
L 13.375 19.53125 
Q 14.40625 12.796875 18.140625 9.390625 
Q 21.875 6 27.15625 6 
Q 33.5 6 37.890625 10.78125 
Q 42.28125 15.578125 42.28125 23.484375 
Q 42.28125 31 38.0625 35.34375 
Q 33.84375 39.703125 27 39.703125 
Q 22.75 39.703125 19.328125 37.765625 
Q 15.921875 35.84375 13.96875 32.765625 
L 5.71875 33.84375 
L 12.640625 70.609375 
L 48.25 70.609375 
L 48.25 62.203125 
L 19.671875 62.203125 
L 15.828125 42.96875 
Q 22.265625 47.46875 29.34375 47.46875 
Q 38.71875 47.46875 45.15625 40.96875 
Q 51.609375 34.46875 51.609375 24.265625 
Q 51.609375 14.546875 45.953125 7.46875 
Q 39.0625 -1.21875 27.15625 -1.21875 
Q 17.390625 -1.21875 11.203125 4.25 
Q 5.03125 9.71875 4.15625 18.75 
z
" id="ArialMT-53"/>
       </defs>
       <use xlink:href="#ArialMT-50"/>
       <use x="55.615234" xlink:href="#ArialMT-53"/>
      </g>
     </g>
    </g>
    <g id="xtick_3">
     <g id="line2d_3">
      <g>
       <use style="fill:#262626;stroke:#262626;stroke-width:1.25;" x="143.384023" xlink:href="#m9cc9e4b3b0" y="224.64"/>
      </g>
     </g>
     <g id="text_3">
      <!-- 50 -->
      <g style="fill:#262626;" transform="translate(137.266992 242.013594)scale(0.11 -0.11)">
       <use xlink:href="#ArialMT-53"/>
       <use x="55.615234" xlink:href="#ArialMT-48"/>
      </g>
     </g>
    </g>
    <g id="xtick_4">
     <g id="line2d_4">
      <g>
       <use style="fill:#262626;stroke:#262626;stroke-width:1.25;" x="181.620661" xlink:href="#m9cc9e4b3b0" y="224.64"/>
      </g>
     </g>
     <g id="text_4">
      <!-- 75 -->
      <g style="fill:#262626;" transform="translate(175.50363 242.013594)scale(0.11 -0.11)">
       <defs>
        <path d="M 4.734375 62.203125 
L 4.734375 70.65625 
L 51.078125 70.65625 
L 51.078125 63.8125 
Q 44.234375 56.546875 37.515625 44.484375 
Q 30.8125 32.421875 27.15625 19.671875 
Q 24.515625 10.6875 23.78125 0 
L 14.75 0 
Q 14.890625 8.453125 18.0625 20.40625 
Q 21.234375 32.375 27.171875 43.484375 
Q 33.109375 54.59375 39.796875 62.203125 
z
" id="ArialMT-55"/>
       </defs>
       <use xlink:href="#ArialMT-55"/>
       <use x="55.615234" xlink:href="#ArialMT-53"/>
      </g>
     </g>
    </g>
    <g id="xtick_5">
     <g id="line2d_5">
      <g>
       <use style="fill:#262626;stroke:#262626;stroke-width:1.25;" x="219.857298" xlink:href="#m9cc9e4b3b0" y="224.64"/>
      </g>
     </g>
     <g id="text_5">
      <!-- 100 -->
      <g style="fill:#262626;" transform="translate(210.681752 242.013594)scale(0.11 -0.11)">
       <defs>
        <path d="M 37.25 0 
L 28.46875 0 
L 28.46875 56 
Q 25.296875 52.984375 20.140625 49.953125 
Q 14.984375 46.921875 10.890625 45.40625 
L 10.890625 53.90625 
Q 18.265625 57.375 23.78125 62.296875 
Q 29.296875 67.234375 31.59375 71.875 
L 37.25 71.875 
z
" id="ArialMT-49"/>
       </defs>
       <use xlink:href="#ArialMT-49"/>
       <use x="55.615234" xlink:href="#ArialMT-48"/>
       <use x="111.230469" xlink:href="#ArialMT-48"/>
      </g>
     </g>
    </g>
    <g id="xtick_6">
     <g id="line2d_6">
      <g>
       <use style="fill:#262626;stroke:#262626;stroke-width:1.25;" x="258.093936" xlink:href="#m9cc9e4b3b0" y="224.64"/>
      </g>
     </g>
     <g id="text_6">
      <!-- 125 -->
      <g style="fill:#262626;" transform="translate(248.918389 242.013594)scale(0.11 -0.11)">
       <use xlink:href="#ArialMT-49"/>
       <use x="55.615234" xlink:href="#ArialMT-50"/>
       <use x="111.230469" xlink:href="#ArialMT-53"/>
      </g>
     </g>
    </g>
    <g id="xtick_7">
     <g id="line2d_7">
      <g>
       <use style="fill:#262626;stroke:#262626;stroke-width:1.25;" x="296.330574" xlink:href="#m9cc9e4b3b0" y="224.64"/>
      </g>
     </g>
     <g id="text_7">
      <!-- 150 -->
      <g style="fill:#262626;" transform="translate(287.155027 242.013594)scale(0.11 -0.11)">
       <use xlink:href="#ArialMT-49"/>
       <use x="55.615234" xlink:href="#ArialMT-53"/>
       <use x="111.230469" xlink:href="#ArialMT-48"/>
      </g>
     </g>
    </g>
    <g id="xtick_8">
     <g id="line2d_8">
      <g>
       <use style="fill:#262626;stroke:#262626;stroke-width:1.25;" x="334.567212" xlink:href="#m9cc9e4b3b0" y="224.64"/>
      </g>
     </g>
     <g id="text_8">
      <!-- 175 -->
      <g style="fill:#262626;" transform="translate(325.391665 242.013594)scale(0.11 -0.11)">
       <use xlink:href="#ArialMT-49"/>
       <use x="55.615234" xlink:href="#ArialMT-55"/>
       <use x="111.230469" xlink:href="#ArialMT-53"/>
      </g>
     </g>
    </g>
    <g id="xtick_9">
     <g id="line2d_9">
      <g>
       <use style="fill:#262626;stroke:#262626;stroke-width:1.25;" x="372.803849" xlink:href="#m9cc9e4b3b0" y="224.64"/>
      </g>
     </g>
     <g id="text_9">
      <!-- 200 -->
      <g style="fill:#262626;" transform="translate(363.628303 242.013594)scale(0.11 -0.11)">
       <use xlink:href="#ArialMT-50"/>
       <use x="55.615234" xlink:href="#ArialMT-48"/>
       <use x="111.230469" xlink:href="#ArialMT-48"/>
      </g>
     </g>
    </g>
    <g id="text_10">
     <!-- Number of boostrap samples -->
     <g style="fill:#262626;" transform="translate(143.591406 256.935469)scale(0.12 -0.12)">
      <defs>
       <path d="M 7.625 0 
L 7.625 71.578125 
L 17.328125 71.578125 
L 54.9375 15.375 
L 54.9375 71.578125 
L 64.015625 71.578125 
L 64.015625 0 
L 54.296875 0 
L 16.703125 56.25 
L 16.703125 0 
z
" id="ArialMT-78"/>
       <path d="M 40.578125 0 
L 40.578125 7.625 
Q 34.515625 -1.171875 24.125 -1.171875 
Q 19.53125 -1.171875 15.546875 0.578125 
Q 11.578125 2.34375 9.640625 5 
Q 7.71875 7.671875 6.9375 11.53125 
Q 6.390625 14.109375 6.390625 19.734375 
L 6.390625 51.859375 
L 15.1875 51.859375 
L 15.1875 23.09375 
Q 15.1875 16.21875 15.71875 13.8125 
Q 16.546875 10.359375 19.234375 8.375 
Q 21.921875 6.390625 25.875 6.390625 
Q 29.828125 6.390625 33.296875 8.421875 
Q 36.765625 10.453125 38.203125 13.9375 
Q 39.65625 17.4375 39.65625 24.078125 
L 39.65625 51.859375 
L 48.4375 51.859375 
L 48.4375 0 
z
" id="ArialMT-117"/>
       <path d="M 6.59375 0 
L 6.59375 51.859375 
L 14.453125 51.859375 
L 14.453125 44.578125 
Q 16.890625 48.390625 20.9375 50.703125 
Q 25 53.03125 30.171875 53.03125 
Q 35.9375 53.03125 39.625 50.640625 
Q 43.3125 48.25 44.828125 43.953125 
Q 50.984375 53.03125 60.84375 53.03125 
Q 68.5625 53.03125 72.703125 48.75 
Q 76.859375 44.484375 76.859375 35.59375 
L 76.859375 0 
L 68.109375 0 
L 68.109375 32.671875 
Q 68.109375 37.9375 67.25 40.25 
Q 66.40625 42.578125 64.15625 43.984375 
Q 61.921875 45.40625 58.890625 45.40625 
Q 53.421875 45.40625 49.796875 41.765625 
Q 46.1875 38.140625 46.1875 30.125 
L 46.1875 0 
L 37.40625 0 
L 37.40625 33.6875 
Q 37.40625 39.546875 35.25 42.46875 
Q 33.109375 45.40625 28.21875 45.40625 
Q 24.515625 45.40625 21.359375 43.453125 
Q 18.21875 41.5 16.796875 37.734375 
Q 15.375 33.984375 15.375 26.90625 
L 15.375 0 
z
" id="ArialMT-109"/>
       <path d="M 14.703125 0 
L 6.546875 0 
L 6.546875 71.578125 
L 15.328125 71.578125 
L 15.328125 46.046875 
Q 20.90625 53.03125 29.546875 53.03125 
Q 34.328125 53.03125 38.59375 51.09375 
Q 42.875 49.171875 45.625 45.671875 
Q 48.390625 42.1875 49.953125 37.25 
Q 51.515625 32.328125 51.515625 26.703125 
Q 51.515625 13.375 44.921875 6.09375 
Q 38.328125 -1.171875 29.109375 -1.171875 
Q 19.921875 -1.171875 14.703125 6.5 
z
M 14.59375 26.3125 
Q 14.59375 17 17.140625 12.84375 
Q 21.296875 6.0625 28.375 6.0625 
Q 34.125 6.0625 38.328125 11.0625 
Q 42.53125 16.0625 42.53125 25.984375 
Q 42.53125 36.140625 38.5 40.96875 
Q 34.46875 45.796875 28.765625 45.796875 
Q 23 45.796875 18.796875 40.796875 
Q 14.59375 35.796875 14.59375 26.3125 
z
" id="ArialMT-98"/>
       <path d="M 42.09375 16.703125 
L 51.171875 15.578125 
Q 49.03125 7.625 43.21875 3.21875 
Q 37.40625 -1.171875 28.375 -1.171875 
Q 17 -1.171875 10.328125 5.828125 
Q 3.65625 12.84375 3.65625 25.484375 
Q 3.65625 38.578125 10.390625 45.796875 
Q 17.140625 53.03125 27.875 53.03125 
Q 38.28125 53.03125 44.875 45.953125 
Q 51.46875 38.875 51.46875 26.03125 
Q 51.46875 25.25 51.421875 23.6875 
L 12.75 23.6875 
Q 13.234375 15.140625 17.578125 10.59375 
Q 21.921875 6.0625 28.421875 6.0625 
Q 33.25 6.0625 36.671875 8.59375 
Q 40.09375 11.140625 42.09375 16.703125 
z
M 13.234375 30.90625 
L 42.1875 30.90625 
Q 41.609375 37.453125 38.875 40.71875 
Q 34.671875 45.796875 27.984375 45.796875 
Q 21.921875 45.796875 17.796875 41.75 
Q 13.671875 37.703125 13.234375 30.90625 
z
" id="ArialMT-101"/>
       <path d="M 6.5 0 
L 6.5 51.859375 
L 14.40625 51.859375 
L 14.40625 44 
Q 17.4375 49.515625 20 51.265625 
Q 22.5625 53.03125 25.640625 53.03125 
Q 30.078125 53.03125 34.671875 50.203125 
L 31.640625 42.046875 
Q 28.421875 43.953125 25.203125 43.953125 
Q 22.3125 43.953125 20.015625 42.21875 
Q 17.71875 40.484375 16.75 37.40625 
Q 15.28125 32.71875 15.28125 27.15625 
L 15.28125 0 
z
" id="ArialMT-114"/>
       <path id="ArialMT-32"/>
       <path d="M 3.328125 25.921875 
Q 3.328125 40.328125 11.328125 47.265625 
Q 18.015625 53.03125 27.640625 53.03125 
Q 38.328125 53.03125 45.109375 46.015625 
Q 51.90625 39.015625 51.90625 26.65625 
Q 51.90625 16.65625 48.90625 10.90625 
Q 45.90625 5.171875 40.15625 2 
Q 34.421875 -1.171875 27.640625 -1.171875 
Q 16.75 -1.171875 10.03125 5.8125 
Q 3.328125 12.796875 3.328125 25.921875 
z
M 12.359375 25.921875 
Q 12.359375 15.96875 16.703125 11.015625 
Q 21.046875 6.0625 27.640625 6.0625 
Q 34.1875 6.0625 38.53125 11.03125 
Q 42.875 16.015625 42.875 26.21875 
Q 42.875 35.84375 38.5 40.796875 
Q 34.125 45.75 27.640625 45.75 
Q 21.046875 45.75 16.703125 40.8125 
Q 12.359375 35.890625 12.359375 25.921875 
z
" id="ArialMT-111"/>
       <path d="M 8.6875 0 
L 8.6875 45.015625 
L 0.921875 45.015625 
L 0.921875 51.859375 
L 8.6875 51.859375 
L 8.6875 57.375 
Q 8.6875 62.59375 9.625 65.140625 
Q 10.890625 68.5625 14.078125 70.671875 
Q 17.28125 72.796875 23.046875 72.796875 
Q 26.765625 72.796875 31.25 71.921875 
L 29.9375 64.265625 
Q 27.203125 64.75 24.75 64.75 
Q 20.75 64.75 19.09375 63.03125 
Q 17.4375 61.328125 17.4375 56.640625 
L 17.4375 51.859375 
L 27.546875 51.859375 
L 27.546875 45.015625 
L 17.4375 45.015625 
L 17.4375 0 
z
" id="ArialMT-102"/>
       <path d="M 3.078125 15.484375 
L 11.765625 16.84375 
Q 12.5 11.625 15.84375 8.84375 
Q 19.1875 6.0625 25.203125 6.0625 
Q 31.25 6.0625 34.171875 8.515625 
Q 37.109375 10.984375 37.109375 14.3125 
Q 37.109375 17.28125 34.515625 19 
Q 32.71875 20.171875 25.53125 21.96875 
Q 15.875 24.421875 12.140625 26.203125 
Q 8.40625 27.984375 6.46875 31.125 
Q 4.546875 34.28125 4.546875 38.09375 
Q 4.546875 41.546875 6.125 44.5 
Q 7.71875 47.46875 10.453125 49.421875 
Q 12.5 50.921875 16.03125 51.96875 
Q 19.578125 53.03125 23.640625 53.03125 
Q 29.734375 53.03125 34.34375 51.265625 
Q 38.96875 49.515625 41.15625 46.5 
Q 43.359375 43.5 44.1875 38.484375 
L 35.59375 37.3125 
Q 35.015625 41.3125 32.203125 43.546875 
Q 29.390625 45.796875 24.265625 45.796875 
Q 18.21875 45.796875 15.625 43.796875 
Q 13.03125 41.796875 13.03125 39.109375 
Q 13.03125 37.40625 14.109375 36.03125 
Q 15.1875 34.625 17.484375 33.6875 
Q 18.796875 33.203125 25.25 31.453125 
Q 34.578125 28.953125 38.25 27.359375 
Q 41.9375 25.78125 44.03125 22.75 
Q 46.140625 19.734375 46.140625 15.234375 
Q 46.140625 10.84375 43.578125 6.953125 
Q 41.015625 3.078125 36.171875 0.953125 
Q 31.34375 -1.171875 25.25 -1.171875 
Q 15.140625 -1.171875 9.84375 3.03125 
Q 4.546875 7.234375 3.078125 15.484375 
z
" id="ArialMT-115"/>
       <path d="M 25.78125 7.859375 
L 27.046875 0.09375 
Q 23.34375 -0.6875 20.40625 -0.6875 
Q 15.625 -0.6875 12.984375 0.828125 
Q 10.359375 2.34375 9.28125 4.8125 
Q 8.203125 7.28125 8.203125 15.1875 
L 8.203125 45.015625 
L 1.765625 45.015625 
L 1.765625 51.859375 
L 8.203125 51.859375 
L 8.203125 64.703125 
L 16.9375 69.96875 
L 16.9375 51.859375 
L 25.78125 51.859375 
L 25.78125 45.015625 
L 16.9375 45.015625 
L 16.9375 14.703125 
Q 16.9375 10.9375 17.40625 9.859375 
Q 17.875 8.796875 18.921875 8.15625 
Q 19.96875 7.515625 21.921875 7.515625 
Q 23.390625 7.515625 25.78125 7.859375 
z
" id="ArialMT-116"/>
       <path d="M 40.4375 6.390625 
Q 35.546875 2.25 31.03125 0.53125 
Q 26.515625 -1.171875 21.34375 -1.171875 
Q 12.796875 -1.171875 8.203125 3 
Q 3.609375 7.171875 3.609375 13.671875 
Q 3.609375 17.484375 5.34375 20.625 
Q 7.078125 23.78125 9.890625 25.6875 
Q 12.703125 27.59375 16.21875 28.5625 
Q 18.796875 29.25 24.03125 29.890625 
Q 34.671875 31.15625 39.703125 32.90625 
Q 39.75 34.71875 39.75 35.203125 
Q 39.75 40.578125 37.25 42.78125 
Q 33.890625 45.75 27.25 45.75 
Q 21.046875 45.75 18.09375 43.578125 
Q 15.140625 41.40625 13.71875 35.890625 
L 5.125 37.0625 
Q 6.296875 42.578125 8.984375 45.96875 
Q 11.671875 49.359375 16.75 51.1875 
Q 21.828125 53.03125 28.515625 53.03125 
Q 35.15625 53.03125 39.296875 51.46875 
Q 43.453125 49.90625 45.40625 47.53125 
Q 47.359375 45.171875 48.140625 41.546875 
Q 48.578125 39.3125 48.578125 33.453125 
L 48.578125 21.734375 
Q 48.578125 9.46875 49.140625 6.21875 
Q 49.703125 2.984375 51.375 0 
L 42.1875 0 
Q 40.828125 2.734375 40.4375 6.390625 
z
M 39.703125 26.03125 
Q 34.90625 24.078125 25.34375 22.703125 
Q 19.921875 21.921875 17.671875 20.9375 
Q 15.4375 19.96875 14.203125 18.09375 
Q 12.984375 16.21875 12.984375 13.921875 
Q 12.984375 10.40625 15.640625 8.0625 
Q 18.3125 5.71875 23.4375 5.71875 
Q 28.515625 5.71875 32.46875 7.9375 
Q 36.421875 10.15625 38.28125 14.015625 
Q 39.703125 17 39.703125 22.796875 
z
" id="ArialMT-97"/>
       <path d="M 6.59375 -19.875 
L 6.59375 51.859375 
L 14.59375 51.859375 
L 14.59375 45.125 
Q 17.4375 49.078125 21 51.046875 
Q 24.5625 53.03125 29.640625 53.03125 
Q 36.28125 53.03125 41.359375 49.609375 
Q 46.4375 46.1875 49.015625 39.953125 
Q 51.609375 33.734375 51.609375 26.3125 
Q 51.609375 18.359375 48.75 11.984375 
Q 45.90625 5.609375 40.453125 2.21875 
Q 35.015625 -1.171875 29 -1.171875 
Q 24.609375 -1.171875 21.109375 0.6875 
Q 17.625 2.546875 15.375 5.375 
L 15.375 -19.875 
z
M 14.546875 25.640625 
Q 14.546875 15.625 18.59375 10.84375 
Q 22.65625 6.0625 28.421875 6.0625 
Q 34.28125 6.0625 38.453125 11.015625 
Q 42.625 15.96875 42.625 26.375 
Q 42.625 36.28125 38.546875 41.203125 
Q 34.46875 46.140625 28.8125 46.140625 
Q 23.1875 46.140625 18.859375 40.890625 
Q 14.546875 35.640625 14.546875 25.640625 
z
" id="ArialMT-112"/>
       <path d="M 6.390625 0 
L 6.390625 71.578125 
L 15.1875 71.578125 
L 15.1875 0 
z
" id="ArialMT-108"/>
      </defs>
      <use xlink:href="#ArialMT-78"/>
      <use x="72.216797" xlink:href="#ArialMT-117"/>
      <use x="127.832031" xlink:href="#ArialMT-109"/>
      <use x="211.132812" xlink:href="#ArialMT-98"/>
      <use x="266.748047" xlink:href="#ArialMT-101"/>
      <use x="322.363281" xlink:href="#ArialMT-114"/>
      <use x="355.664062" xlink:href="#ArialMT-32"/>
      <use x="383.447266" xlink:href="#ArialMT-111"/>
      <use x="439.0625" xlink:href="#ArialMT-102"/>
      <use x="466.845703" xlink:href="#ArialMT-32"/>
      <use x="494.628906" xlink:href="#ArialMT-98"/>
      <use x="550.244141" xlink:href="#ArialMT-111"/>
      <use x="605.859375" xlink:href="#ArialMT-111"/>
      <use x="661.474609" xlink:href="#ArialMT-115"/>
      <use x="711.474609" xlink:href="#ArialMT-116"/>
      <use x="739.257812" xlink:href="#ArialMT-114"/>
      <use x="772.558594" xlink:href="#ArialMT-97"/>
      <use x="828.173828" xlink:href="#ArialMT-112"/>
      <use x="883.789062" xlink:href="#ArialMT-32"/>
      <use x="911.572266" xlink:href="#ArialMT-115"/>
      <use x="961.572266" xlink:href="#ArialMT-97"/>
      <use x="1017.1875" xlink:href="#ArialMT-109"/>
      <use x="1100.488281" xlink:href="#ArialMT-112"/>
      <use x="1156.103516" xlink:href="#ArialMT-108"/>
      <use x="1178.320312" xlink:href="#ArialMT-101"/>
      <use x="1233.935547" xlink:href="#ArialMT-115"/>
     </g>
    </g>
   </g>
   <g id="matplotlib.axis_2">
    <g id="ytick_1">
     <g id="line2d_10">
      <defs>
       <path d="M 0 0 
L -6 0 
" id="m6f67a32c97" style="stroke:#262626;stroke-width:1.25;"/>
      </defs>
      <g>
       <use style="fill:#262626;stroke:#262626;stroke-width:1.25;" x="53.222031" xlink:href="#m6f67a32c97" y="186.517403"/>
      </g>
     </g>
     <g id="text_11">
      <!-- 0.91 -->
      <g style="fill:#262626;" transform="translate(22.315 190.454199)scale(0.11 -0.11)">
       <defs>
        <path d="M 9.078125 0 
L 9.078125 10.015625 
L 19.09375 10.015625 
L 19.09375 0 
z
" id="ArialMT-46"/>
        <path d="M 5.46875 16.546875 
L 13.921875 17.328125 
Q 14.984375 11.375 18.015625 8.6875 
Q 21.046875 6 25.78125 6 
Q 29.828125 6 32.875 7.859375 
Q 35.9375 9.71875 37.890625 12.8125 
Q 39.84375 15.921875 41.15625 21.1875 
Q 42.484375 26.46875 42.484375 31.9375 
Q 42.484375 32.515625 42.4375 33.6875 
Q 39.796875 29.5 35.234375 26.875 
Q 30.671875 24.265625 25.34375 24.265625 
Q 16.453125 24.265625 10.296875 30.703125 
Q 4.15625 37.15625 4.15625 47.703125 
Q 4.15625 58.59375 10.578125 65.234375 
Q 17 71.875 26.65625 71.875 
Q 33.640625 71.875 39.421875 68.109375 
Q 45.21875 64.359375 48.21875 57.390625 
Q 51.21875 50.4375 51.21875 37.25 
Q 51.21875 23.53125 48.234375 15.40625 
Q 45.265625 7.28125 39.375 3.03125 
Q 33.5 -1.21875 25.59375 -1.21875 
Q 17.1875 -1.21875 11.859375 3.4375 
Q 6.546875 8.109375 5.46875 16.546875 
z
M 41.453125 48.140625 
Q 41.453125 55.71875 37.421875 60.15625 
Q 33.40625 64.59375 27.734375 64.59375 
Q 21.875 64.59375 17.53125 59.8125 
Q 13.1875 55.03125 13.1875 47.40625 
Q 13.1875 40.578125 17.3125 36.296875 
Q 21.4375 32.03125 27.484375 32.03125 
Q 33.59375 32.03125 37.515625 36.296875 
Q 41.453125 40.578125 41.453125 48.140625 
z
" id="ArialMT-57"/>
       </defs>
       <use xlink:href="#ArialMT-48"/>
       <use x="55.615234" xlink:href="#ArialMT-46"/>
       <use x="83.398438" xlink:href="#ArialMT-57"/>
       <use x="139.013672" xlink:href="#ArialMT-49"/>
      </g>
     </g>
    </g>
    <g id="ytick_2">
     <g id="line2d_11">
      <g>
       <use style="fill:#262626;stroke:#262626;stroke-width:1.25;" x="53.222031" xlink:href="#m6f67a32c97" y="146.17603"/>
      </g>
     </g>
     <g id="text_12">
      <!-- 0.92 -->
      <g style="fill:#262626;" transform="translate(22.315 150.112827)scale(0.11 -0.11)">
       <use xlink:href="#ArialMT-48"/>
       <use x="55.615234" xlink:href="#ArialMT-46"/>
       <use x="83.398438" xlink:href="#ArialMT-57"/>
       <use x="139.013672" xlink:href="#ArialMT-50"/>
      </g>
     </g>
    </g>
    <g id="ytick_3">
     <g id="line2d_12">
      <g>
       <use style="fill:#262626;stroke:#262626;stroke-width:1.25;" x="53.222031" xlink:href="#m6f67a32c97" y="105.834657"/>
      </g>
     </g>
     <g id="text_13">
      <!-- 0.93 -->
      <g style="fill:#262626;" transform="translate(22.315 109.771454)scale(0.11 -0.11)">
       <defs>
        <path d="M 4.203125 18.890625 
L 12.984375 20.0625 
Q 14.5 12.59375 18.140625 9.296875 
Q 21.78125 6 27 6 
Q 33.203125 6 37.46875 10.296875 
Q 41.75 14.59375 41.75 20.953125 
Q 41.75 27 37.796875 30.921875 
Q 33.84375 34.859375 27.734375 34.859375 
Q 25.25 34.859375 21.53125 33.890625 
L 22.515625 41.609375 
Q 23.390625 41.5 23.921875 41.5 
Q 29.546875 41.5 34.03125 44.421875 
Q 38.53125 47.359375 38.53125 53.46875 
Q 38.53125 58.296875 35.25 61.46875 
Q 31.984375 64.65625 26.8125 64.65625 
Q 21.6875 64.65625 18.265625 61.421875 
Q 14.84375 58.203125 13.875 51.765625 
L 5.078125 53.328125 
Q 6.6875 62.15625 12.390625 67.015625 
Q 18.109375 71.875 26.609375 71.875 
Q 32.46875 71.875 37.390625 69.359375 
Q 42.328125 66.84375 44.9375 62.5 
Q 47.5625 58.15625 47.5625 53.265625 
Q 47.5625 48.640625 45.0625 44.828125 
Q 42.578125 41.015625 37.703125 38.765625 
Q 44.046875 37.3125 47.5625 32.6875 
Q 51.078125 28.078125 51.078125 21.140625 
Q 51.078125 11.765625 44.234375 5.25 
Q 37.40625 -1.265625 26.953125 -1.265625 
Q 17.53125 -1.265625 11.296875 4.34375 
Q 5.078125 9.96875 4.203125 18.890625 
z
" id="ArialMT-51"/>
       </defs>
       <use xlink:href="#ArialMT-48"/>
       <use x="55.615234" xlink:href="#ArialMT-46"/>
       <use x="83.398438" xlink:href="#ArialMT-57"/>
       <use x="139.013672" xlink:href="#ArialMT-51"/>
      </g>
     </g>
    </g>
    <g id="ytick_4">
     <g id="line2d_13">
      <g>
       <use style="fill:#262626;stroke:#262626;stroke-width:1.25;" x="53.222031" xlink:href="#m6f67a32c97" y="65.493284"/>
      </g>
     </g>
     <g id="text_14">
      <!-- 0.94 -->
      <g style="fill:#262626;" transform="translate(22.315 69.430081)scale(0.11 -0.11)">
       <defs>
        <path d="M 32.328125 0 
L 32.328125 17.140625 
L 1.265625 17.140625 
L 1.265625 25.203125 
L 33.9375 71.578125 
L 41.109375 71.578125 
L 41.109375 25.203125 
L 50.78125 25.203125 
L 50.78125 17.140625 
L 41.109375 17.140625 
L 41.109375 0 
z
M 32.328125 25.203125 
L 32.328125 57.46875 
L 9.90625 25.203125 
z
" id="ArialMT-52"/>
       </defs>
       <use xlink:href="#ArialMT-48"/>
       <use x="55.615234" xlink:href="#ArialMT-46"/>
       <use x="83.398438" xlink:href="#ArialMT-57"/>
       <use x="139.013672" xlink:href="#ArialMT-52"/>
      </g>
     </g>
    </g>
    <g id="ytick_5">
     <g id="line2d_14">
      <g>
       <use style="fill:#262626;stroke:#262626;stroke-width:1.25;" x="53.222031" xlink:href="#m6f67a32c97" y="25.151911"/>
      </g>
     </g>
     <g id="text_15">
      <!-- 0.95 -->
      <g style="fill:#262626;" transform="translate(22.315 29.088708)scale(0.11 -0.11)">
       <use xlink:href="#ArialMT-48"/>
       <use x="55.615234" xlink:href="#ArialMT-46"/>
       <use x="83.398438" xlink:href="#ArialMT-57"/>
       <use x="139.013672" xlink:href="#ArialMT-53"/>
      </g>
     </g>
    </g>
    <g id="text_16">
     <!-- Accuracy -->
     <g style="fill:#262626;" transform="translate(15.789375 140.593125)rotate(-90)scale(0.12 -0.12)">
      <defs>
       <path d="M -0.140625 0 
L 27.34375 71.578125 
L 37.546875 71.578125 
L 66.84375 0 
L 56.0625 0 
L 47.703125 21.6875 
L 17.78125 21.6875 
L 9.90625 0 
z
M 20.515625 29.390625 
L 44.78125 29.390625 
L 37.3125 49.21875 
Q 33.890625 58.25 32.234375 64.0625 
Q 30.859375 57.171875 28.375 50.390625 
z
" id="ArialMT-65"/>
       <path d="M 40.4375 19 
L 49.078125 17.875 
Q 47.65625 8.9375 41.8125 3.875 
Q 35.984375 -1.171875 27.484375 -1.171875 
Q 16.84375 -1.171875 10.375 5.78125 
Q 3.90625 12.75 3.90625 25.734375 
Q 3.90625 34.125 6.6875 40.421875 
Q 9.46875 46.734375 15.15625 49.875 
Q 20.84375 53.03125 27.546875 53.03125 
Q 35.984375 53.03125 41.359375 48.75 
Q 46.734375 44.484375 48.25 36.625 
L 39.703125 35.296875 
Q 38.484375 40.53125 35.375 43.15625 
Q 32.28125 45.796875 27.875 45.796875 
Q 21.234375 45.796875 17.078125 41.03125 
Q 12.9375 36.28125 12.9375 25.984375 
Q 12.9375 15.53125 16.9375 10.796875 
Q 20.953125 6.0625 27.390625 6.0625 
Q 32.5625 6.0625 36.03125 9.234375 
Q 39.5 12.40625 40.4375 19 
z
" id="ArialMT-99"/>
       <path d="M 6.203125 -19.96875 
L 5.21875 -11.71875 
Q 8.109375 -12.5 10.25 -12.5 
Q 13.1875 -12.5 14.9375 -11.515625 
Q 16.703125 -10.546875 17.828125 -8.796875 
Q 18.65625 -7.46875 20.515625 -2.25 
Q 20.75 -1.515625 21.296875 -0.09375 
L 1.609375 51.859375 
L 11.078125 51.859375 
L 21.875 21.828125 
Q 23.96875 16.109375 25.640625 9.8125 
Q 27.15625 15.875 29.25 21.625 
L 40.328125 51.859375 
L 49.125 51.859375 
L 29.390625 -0.875 
Q 26.21875 -9.421875 24.46875 -12.640625 
Q 22.125 -17 19.09375 -19.015625 
Q 16.0625 -21.046875 11.859375 -21.046875 
Q 9.328125 -21.046875 6.203125 -19.96875 
z
" id="ArialMT-121"/>
      </defs>
      <use xlink:href="#ArialMT-65"/>
      <use x="66.699219" xlink:href="#ArialMT-99"/>
      <use x="116.699219" xlink:href="#ArialMT-99"/>
      <use x="166.699219" xlink:href="#ArialMT-117"/>
      <use x="222.314453" xlink:href="#ArialMT-114"/>
      <use x="255.615234" xlink:href="#ArialMT-97"/>
      <use x="311.230469" xlink:href="#ArialMT-99"/>
      <use x="361.230469" xlink:href="#ArialMT-121"/>
     </g>
    </g>
   </g>
   <g id="PathCollection_1">
    <defs>
     <path d="M 0 3 
C 0.795609 3 1.55874 2.683901 2.12132 2.12132 
C 2.683901 1.55874 3 0.795609 3 -0 
C 3 -0.795609 2.683901 -1.55874 2.12132 -2.12132 
C 1.55874 -2.683901 0.795609 -3 0 -3 
C -0.795609 -3 -1.55874 -2.683901 -2.12132 -2.12132 
C -2.683901 -1.55874 -3 -0.795609 -3 0 
C -3 0.795609 -2.683901 1.55874 -2.12132 2.12132 
C -1.55874 2.683901 -0.795609 3 0 3 
z
" id="C0_0_3e5e115821"/>
    </defs>
    <g clip-path="url(#p00ab98aadd)">
     <use style="fill:none;stroke:#fb8072;" x="68.440213" xlink:href="#C0_0_3e5e115821" y="214.756364"/>
    </g>
    <g clip-path="url(#p00ab98aadd)">
     <use style="fill:none;stroke:#fb8072;" x="69.969679" xlink:href="#C0_0_3e5e115821" y="174.414991"/>
    </g>
    <g clip-path="url(#p00ab98aadd)">
     <use style="fill:none;stroke:#fb8072;" x="71.499144" xlink:href="#C0_0_3e5e115821" y="130.039481"/>
    </g>
    <g clip-path="url(#p00ab98aadd)">
     <use style="fill:none;stroke:#fb8072;" x="73.02861" xlink:href="#C0_0_3e5e115821" y="105.834657"/>
    </g>
    <g clip-path="url(#p00ab98aadd)">
     <use style="fill:none;stroke:#fb8072;" x="74.558075" xlink:href="#C0_0_3e5e115821" y="97.766382"/>
    </g>
    <g clip-path="url(#p00ab98aadd)">
     <use style="fill:none;stroke:#fb8072;" x="76.087541" xlink:href="#C0_0_3e5e115821" y="85.66397"/>
    </g>
    <g clip-path="url(#p00ab98aadd)">
     <use style="fill:none;stroke:#fb8072;" x="77.617006" xlink:href="#C0_0_3e5e115821" y="77.595696"/>
    </g>
    <g clip-path="url(#p00ab98aadd)">
     <use style="fill:none;stroke:#fb8072;" x="79.146472" xlink:href="#C0_0_3e5e115821" y="57.425009"/>
    </g>
    <g clip-path="url(#p00ab98aadd)">
     <use style="fill:none;stroke:#fb8072;" x="80.675937" xlink:href="#C0_0_3e5e115821" y="65.493284"/>
    </g>
    <g clip-path="url(#p00ab98aadd)">
     <use style="fill:none;stroke:#fb8072;" x="82.205403" xlink:href="#C0_0_3e5e115821" y="65.493284"/>
    </g>
    <g clip-path="url(#p00ab98aadd)">
     <use style="fill:none;stroke:#fb8072;" x="83.734868" xlink:href="#C0_0_3e5e115821" y="41.28846"/>
    </g>
    <g clip-path="url(#p00ab98aadd)">
     <use style="fill:none;stroke:#fb8072;" x="85.264334" xlink:href="#C0_0_3e5e115821" y="61.459147"/>
    </g>
    <g clip-path="url(#p00ab98aadd)">
     <use style="fill:none;stroke:#fb8072;" x="86.793799" xlink:href="#C0_0_3e5e115821" y="45.322597"/>
    </g>
    <g clip-path="url(#p00ab98aadd)">
     <use style="fill:none;stroke:#fb8072;" x="88.323265" xlink:href="#C0_0_3e5e115821" y="45.322597"/>
    </g>
    <g clip-path="url(#p00ab98aadd)">
     <use style="fill:none;stroke:#fb8072;" x="89.85273" xlink:href="#C0_0_3e5e115821" y="57.425009"/>
    </g>
    <g clip-path="url(#p00ab98aadd)">
     <use style="fill:none;stroke:#fb8072;" x="91.382196" xlink:href="#C0_0_3e5e115821" y="57.425009"/>
    </g>
    <g clip-path="url(#p00ab98aadd)">
     <use style="fill:none;stroke:#fb8072;" x="92.911661" xlink:href="#C0_0_3e5e115821" y="65.493284"/>
    </g>
    <g clip-path="url(#p00ab98aadd)">
     <use style="fill:none;stroke:#fb8072;" x="94.441127" xlink:href="#C0_0_3e5e115821" y="45.322597"/>
    </g>
    <g clip-path="url(#p00ab98aadd)">
     <use style="fill:none;stroke:#fb8072;" x="95.970592" xlink:href="#C0_0_3e5e115821" y="57.425009"/>
    </g>
    <g clip-path="url(#p00ab98aadd)">
     <use style="fill:none;stroke:#fb8072;" x="97.500058" xlink:href="#C0_0_3e5e115821" y="45.322597"/>
    </g>
    <g clip-path="url(#p00ab98aadd)">
     <use style="fill:none;stroke:#fb8072;" x="99.029523" xlink:href="#C0_0_3e5e115821" y="33.220186"/>
    </g>
    <g clip-path="url(#p00ab98aadd)">
     <use style="fill:none;stroke:#fb8072;" x="100.558989" xlink:href="#C0_0_3e5e115821" y="37.254323"/>
    </g>
    <g clip-path="url(#p00ab98aadd)">
     <use style="fill:none;stroke:#fb8072;" x="102.088454" xlink:href="#C0_0_3e5e115821" y="61.459147"/>
    </g>
    <g clip-path="url(#p00ab98aadd)">
     <use style="fill:none;stroke:#fb8072;" x="103.61792" xlink:href="#C0_0_3e5e115821" y="37.254323"/>
    </g>
    <g clip-path="url(#p00ab98aadd)">
     <use style="fill:none;stroke:#fb8072;" x="105.147385" xlink:href="#C0_0_3e5e115821" y="33.220186"/>
    </g>
    <g clip-path="url(#p00ab98aadd)">
     <use style="fill:none;stroke:#fb8072;" x="106.676851" xlink:href="#C0_0_3e5e115821" y="41.28846"/>
    </g>
    <g clip-path="url(#p00ab98aadd)">
     <use style="fill:none;stroke:#fb8072;" x="108.206316" xlink:href="#C0_0_3e5e115821" y="33.220186"/>
    </g>
    <g clip-path="url(#p00ab98aadd)">
     <use style="fill:none;stroke:#fb8072;" x="109.735782" xlink:href="#C0_0_3e5e115821" y="33.220186"/>
    </g>
    <g clip-path="url(#p00ab98aadd)">
     <use style="fill:none;stroke:#fb8072;" x="111.265247" xlink:href="#C0_0_3e5e115821" y="45.322597"/>
    </g>
    <g clip-path="url(#p00ab98aadd)">
     <use style="fill:none;stroke:#fb8072;" x="112.794713" xlink:href="#C0_0_3e5e115821" y="29.186048"/>
    </g>
    <g clip-path="url(#p00ab98aadd)">
     <use style="fill:none;stroke:#fb8072;" x="114.324178" xlink:href="#C0_0_3e5e115821" y="21.117774"/>
    </g>
    <g clip-path="url(#p00ab98aadd)">
     <use style="fill:none;stroke:#fb8072;" x="115.853644" xlink:href="#C0_0_3e5e115821" y="53.390872"/>
    </g>
    <g clip-path="url(#p00ab98aadd)">
     <use style="fill:none;stroke:#fb8072;" x="117.383109" xlink:href="#C0_0_3e5e115821" y="45.322597"/>
    </g>
    <g clip-path="url(#p00ab98aadd)">
     <use style="fill:none;stroke:#fb8072;" x="118.912575" xlink:href="#C0_0_3e5e115821" y="41.28846"/>
    </g>
    <g clip-path="url(#p00ab98aadd)">
     <use style="fill:none;stroke:#fb8072;" x="120.44204" xlink:href="#C0_0_3e5e115821" y="37.254323"/>
    </g>
    <g clip-path="url(#p00ab98aadd)">
     <use style="fill:none;stroke:#fb8072;" x="121.971506" xlink:href="#C0_0_3e5e115821" y="41.28846"/>
    </g>
    <g clip-path="url(#p00ab98aadd)">
     <use style="fill:none;stroke:#fb8072;" x="123.500971" xlink:href="#C0_0_3e5e115821" y="33.220186"/>
    </g>
    <g clip-path="url(#p00ab98aadd)">
     <use style="fill:none;stroke:#fb8072;" x="125.030437" xlink:href="#C0_0_3e5e115821" y="37.254323"/>
    </g>
    <g clip-path="url(#p00ab98aadd)">
     <use style="fill:none;stroke:#fb8072;" x="126.559902" xlink:href="#C0_0_3e5e115821" y="37.254323"/>
    </g>
    <g clip-path="url(#p00ab98aadd)">
     <use style="fill:none;stroke:#fb8072;" x="128.089368" xlink:href="#C0_0_3e5e115821" y="45.322597"/>
    </g>
    <g clip-path="url(#p00ab98aadd)">
     <use style="fill:none;stroke:#fb8072;" x="129.618833" xlink:href="#C0_0_3e5e115821" y="45.322597"/>
    </g>
    <g clip-path="url(#p00ab98aadd)">
     <use style="fill:none;stroke:#fb8072;" x="131.148299" xlink:href="#C0_0_3e5e115821" y="41.28846"/>
    </g>
    <g clip-path="url(#p00ab98aadd)">
     <use style="fill:none;stroke:#fb8072;" x="132.677764" xlink:href="#C0_0_3e5e115821" y="41.28846"/>
    </g>
    <g clip-path="url(#p00ab98aadd)">
     <use style="fill:none;stroke:#fb8072;" x="134.20723" xlink:href="#C0_0_3e5e115821" y="37.254323"/>
    </g>
    <g clip-path="url(#p00ab98aadd)">
     <use style="fill:none;stroke:#fb8072;" x="135.736695" xlink:href="#C0_0_3e5e115821" y="45.322597"/>
    </g>
    <g clip-path="url(#p00ab98aadd)">
     <use style="fill:none;stroke:#fb8072;" x="137.266161" xlink:href="#C0_0_3e5e115821" y="33.220186"/>
    </g>
    <g clip-path="url(#p00ab98aadd)">
     <use style="fill:none;stroke:#fb8072;" x="138.795626" xlink:href="#C0_0_3e5e115821" y="41.28846"/>
    </g>
    <g clip-path="url(#p00ab98aadd)">
     <use style="fill:none;stroke:#fb8072;" x="140.325092" xlink:href="#C0_0_3e5e115821" y="33.220186"/>
    </g>
    <g clip-path="url(#p00ab98aadd)">
     <use style="fill:none;stroke:#fb8072;" x="141.854558" xlink:href="#C0_0_3e5e115821" y="29.186048"/>
    </g>
    <g clip-path="url(#p00ab98aadd)">
     <use style="fill:none;stroke:#fb8072;" x="143.384023" xlink:href="#C0_0_3e5e115821" y="37.254323"/>
    </g>
    <g clip-path="url(#p00ab98aadd)">
     <use style="fill:none;stroke:#fb8072;" x="144.913489" xlink:href="#C0_0_3e5e115821" y="33.220186"/>
    </g>
    <g clip-path="url(#p00ab98aadd)">
     <use style="fill:none;stroke:#fb8072;" x="146.442954" xlink:href="#C0_0_3e5e115821" y="33.220186"/>
    </g>
    <g clip-path="url(#p00ab98aadd)">
     <use style="fill:none;stroke:#fb8072;" x="147.97242" xlink:href="#C0_0_3e5e115821" y="37.254323"/>
    </g>
    <g clip-path="url(#p00ab98aadd)">
     <use style="fill:none;stroke:#fb8072;" x="149.501885" xlink:href="#C0_0_3e5e115821" y="29.186048"/>
    </g>
    <g clip-path="url(#p00ab98aadd)">
     <use style="fill:none;stroke:#fb8072;" x="151.031351" xlink:href="#C0_0_3e5e115821" y="29.186048"/>
    </g>
    <g clip-path="url(#p00ab98aadd)">
     <use style="fill:none;stroke:#fb8072;" x="152.560816" xlink:href="#C0_0_3e5e115821" y="37.254323"/>
    </g>
    <g clip-path="url(#p00ab98aadd)">
     <use style="fill:none;stroke:#fb8072;" x="154.090282" xlink:href="#C0_0_3e5e115821" y="37.254323"/>
    </g>
    <g clip-path="url(#p00ab98aadd)">
     <use style="fill:none;stroke:#fb8072;" x="155.619747" xlink:href="#C0_0_3e5e115821" y="33.220186"/>
    </g>
    <g clip-path="url(#p00ab98aadd)">
     <use style="fill:none;stroke:#fb8072;" x="157.149213" xlink:href="#C0_0_3e5e115821" y="29.186048"/>
    </g>
    <g clip-path="url(#p00ab98aadd)">
     <use style="fill:none;stroke:#fb8072;" x="158.678678" xlink:href="#C0_0_3e5e115821" y="45.322597"/>
    </g>
    <g clip-path="url(#p00ab98aadd)">
     <use style="fill:none;stroke:#fb8072;" x="160.208144" xlink:href="#C0_0_3e5e115821" y="37.254323"/>
    </g>
    <g clip-path="url(#p00ab98aadd)">
     <use style="fill:none;stroke:#fb8072;" x="161.737609" xlink:href="#C0_0_3e5e115821" y="29.186048"/>
    </g>
    <g clip-path="url(#p00ab98aadd)">
     <use style="fill:none;stroke:#fb8072;" x="163.267075" xlink:href="#C0_0_3e5e115821" y="53.390872"/>
    </g>
    <g clip-path="url(#p00ab98aadd)">
     <use style="fill:none;stroke:#fb8072;" x="164.79654" xlink:href="#C0_0_3e5e115821" y="33.220186"/>
    </g>
    <g clip-path="url(#p00ab98aadd)">
     <use style="fill:none;stroke:#fb8072;" x="166.326006" xlink:href="#C0_0_3e5e115821" y="37.254323"/>
    </g>
    <g clip-path="url(#p00ab98aadd)">
     <use style="fill:none;stroke:#fb8072;" x="167.855471" xlink:href="#C0_0_3e5e115821" y="45.322597"/>
    </g>
    <g clip-path="url(#p00ab98aadd)">
     <use style="fill:none;stroke:#fb8072;" x="169.384937" xlink:href="#C0_0_3e5e115821" y="45.322597"/>
    </g>
    <g clip-path="url(#p00ab98aadd)">
     <use style="fill:none;stroke:#fb8072;" x="170.914402" xlink:href="#C0_0_3e5e115821" y="33.220186"/>
    </g>
    <g clip-path="url(#p00ab98aadd)">
     <use style="fill:none;stroke:#fb8072;" x="172.443868" xlink:href="#C0_0_3e5e115821" y="41.28846"/>
    </g>
    <g clip-path="url(#p00ab98aadd)">
     <use style="fill:none;stroke:#fb8072;" x="173.973333" xlink:href="#C0_0_3e5e115821" y="37.254323"/>
    </g>
    <g clip-path="url(#p00ab98aadd)">
     <use style="fill:none;stroke:#fb8072;" x="175.502799" xlink:href="#C0_0_3e5e115821" y="37.254323"/>
    </g>
    <g clip-path="url(#p00ab98aadd)">
     <use style="fill:none;stroke:#fb8072;" x="177.032264" xlink:href="#C0_0_3e5e115821" y="29.186048"/>
    </g>
    <g clip-path="url(#p00ab98aadd)">
     <use style="fill:none;stroke:#fb8072;" x="178.56173" xlink:href="#C0_0_3e5e115821" y="45.322597"/>
    </g>
    <g clip-path="url(#p00ab98aadd)">
     <use style="fill:none;stroke:#fb8072;" x="180.091195" xlink:href="#C0_0_3e5e115821" y="53.390872"/>
    </g>
    <g clip-path="url(#p00ab98aadd)">
     <use style="fill:none;stroke:#fb8072;" x="181.620661" xlink:href="#C0_0_3e5e115821" y="41.28846"/>
    </g>
    <g clip-path="url(#p00ab98aadd)">
     <use style="fill:none;stroke:#fb8072;" x="183.150126" xlink:href="#C0_0_3e5e115821" y="45.322597"/>
    </g>
    <g clip-path="url(#p00ab98aadd)">
     <use style="fill:none;stroke:#fb8072;" x="184.679592" xlink:href="#C0_0_3e5e115821" y="33.220186"/>
    </g>
    <g clip-path="url(#p00ab98aadd)">
     <use style="fill:none;stroke:#fb8072;" x="186.209057" xlink:href="#C0_0_3e5e115821" y="33.220186"/>
    </g>
    <g clip-path="url(#p00ab98aadd)">
     <use style="fill:none;stroke:#fb8072;" x="187.738523" xlink:href="#C0_0_3e5e115821" y="41.28846"/>
    </g>
    <g clip-path="url(#p00ab98aadd)">
     <use style="fill:none;stroke:#fb8072;" x="189.267988" xlink:href="#C0_0_3e5e115821" y="37.254323"/>
    </g>
    <g clip-path="url(#p00ab98aadd)">
     <use style="fill:none;stroke:#fb8072;" x="190.797454" xlink:href="#C0_0_3e5e115821" y="37.254323"/>
    </g>
    <g clip-path="url(#p00ab98aadd)">
     <use style="fill:none;stroke:#fb8072;" x="192.326919" xlink:href="#C0_0_3e5e115821" y="37.254323"/>
    </g>
    <g clip-path="url(#p00ab98aadd)">
     <use style="fill:none;stroke:#fb8072;" x="193.856385" xlink:href="#C0_0_3e5e115821" y="33.220186"/>
    </g>
    <g clip-path="url(#p00ab98aadd)">
     <use style="fill:none;stroke:#fb8072;" x="195.38585" xlink:href="#C0_0_3e5e115821" y="41.28846"/>
    </g>
    <g clip-path="url(#p00ab98aadd)">
     <use style="fill:none;stroke:#fb8072;" x="196.915316" xlink:href="#C0_0_3e5e115821" y="29.186048"/>
    </g>
    <g clip-path="url(#p00ab98aadd)">
     <use style="fill:none;stroke:#fb8072;" x="198.444781" xlink:href="#C0_0_3e5e115821" y="33.220186"/>
    </g>
    <g clip-path="url(#p00ab98aadd)">
     <use style="fill:none;stroke:#fb8072;" x="199.974247" xlink:href="#C0_0_3e5e115821" y="45.322597"/>
    </g>
    <g clip-path="url(#p00ab98aadd)">
     <use style="fill:none;stroke:#fb8072;" x="201.503712" xlink:href="#C0_0_3e5e115821" y="37.254323"/>
    </g>
    <g clip-path="url(#p00ab98aadd)">
     <use style="fill:none;stroke:#fb8072;" x="203.033178" xlink:href="#C0_0_3e5e115821" y="37.254323"/>
    </g>
    <g clip-path="url(#p00ab98aadd)">
     <use style="fill:none;stroke:#fb8072;" x="204.562643" xlink:href="#C0_0_3e5e115821" y="29.186048"/>
    </g>
    <g clip-path="url(#p00ab98aadd)">
     <use style="fill:none;stroke:#fb8072;" x="206.092109" xlink:href="#C0_0_3e5e115821" y="33.220186"/>
    </g>
    <g clip-path="url(#p00ab98aadd)">
     <use style="fill:none;stroke:#fb8072;" x="207.621574" xlink:href="#C0_0_3e5e115821" y="33.220186"/>
    </g>
    <g clip-path="url(#p00ab98aadd)">
     <use style="fill:none;stroke:#fb8072;" x="209.15104" xlink:href="#C0_0_3e5e115821" y="37.254323"/>
    </g>
    <g clip-path="url(#p00ab98aadd)">
     <use style="fill:none;stroke:#fb8072;" x="210.680505" xlink:href="#C0_0_3e5e115821" y="33.220186"/>
    </g>
    <g clip-path="url(#p00ab98aadd)">
     <use style="fill:none;stroke:#fb8072;" x="212.209971" xlink:href="#C0_0_3e5e115821" y="37.254323"/>
    </g>
    <g clip-path="url(#p00ab98aadd)">
     <use style="fill:none;stroke:#fb8072;" x="213.739436" xlink:href="#C0_0_3e5e115821" y="37.254323"/>
    </g>
    <g clip-path="url(#p00ab98aadd)">
     <use style="fill:none;stroke:#fb8072;" x="215.268902" xlink:href="#C0_0_3e5e115821" y="37.254323"/>
    </g>
    <g clip-path="url(#p00ab98aadd)">
     <use style="fill:none;stroke:#fb8072;" x="216.798367" xlink:href="#C0_0_3e5e115821" y="37.254323"/>
    </g>
    <g clip-path="url(#p00ab98aadd)">
     <use style="fill:none;stroke:#fb8072;" x="218.327833" xlink:href="#C0_0_3e5e115821" y="33.220186"/>
    </g>
    <g clip-path="url(#p00ab98aadd)">
     <use style="fill:none;stroke:#fb8072;" x="219.857298" xlink:href="#C0_0_3e5e115821" y="29.186048"/>
    </g>
    <g clip-path="url(#p00ab98aadd)">
     <use style="fill:none;stroke:#fb8072;" x="221.386764" xlink:href="#C0_0_3e5e115821" y="37.254323"/>
    </g>
    <g clip-path="url(#p00ab98aadd)">
     <use style="fill:none;stroke:#fb8072;" x="222.91623" xlink:href="#C0_0_3e5e115821" y="29.186048"/>
    </g>
    <g clip-path="url(#p00ab98aadd)">
     <use style="fill:none;stroke:#fb8072;" x="224.445695" xlink:href="#C0_0_3e5e115821" y="33.220186"/>
    </g>
    <g clip-path="url(#p00ab98aadd)">
     <use style="fill:none;stroke:#fb8072;" x="225.975161" xlink:href="#C0_0_3e5e115821" y="33.220186"/>
    </g>
    <g clip-path="url(#p00ab98aadd)">
     <use style="fill:none;stroke:#fb8072;" x="227.504626" xlink:href="#C0_0_3e5e115821" y="29.186048"/>
    </g>
    <g clip-path="url(#p00ab98aadd)">
     <use style="fill:none;stroke:#fb8072;" x="229.034092" xlink:href="#C0_0_3e5e115821" y="25.151911"/>
    </g>
    <g clip-path="url(#p00ab98aadd)">
     <use style="fill:none;stroke:#fb8072;" x="230.563557" xlink:href="#C0_0_3e5e115821" y="33.220186"/>
    </g>
    <g clip-path="url(#p00ab98aadd)">
     <use style="fill:none;stroke:#fb8072;" x="232.093023" xlink:href="#C0_0_3e5e115821" y="33.220186"/>
    </g>
    <g clip-path="url(#p00ab98aadd)">
     <use style="fill:none;stroke:#fb8072;" x="233.622488" xlink:href="#C0_0_3e5e115821" y="17.083636"/>
    </g>
    <g clip-path="url(#p00ab98aadd)">
     <use style="fill:none;stroke:#fb8072;" x="235.151954" xlink:href="#C0_0_3e5e115821" y="37.254323"/>
    </g>
    <g clip-path="url(#p00ab98aadd)">
     <use style="fill:none;stroke:#fb8072;" x="236.681419" xlink:href="#C0_0_3e5e115821" y="33.220186"/>
    </g>
    <g clip-path="url(#p00ab98aadd)">
     <use style="fill:none;stroke:#fb8072;" x="238.210885" xlink:href="#C0_0_3e5e115821" y="29.186048"/>
    </g>
    <g clip-path="url(#p00ab98aadd)">
     <use style="fill:none;stroke:#fb8072;" x="239.74035" xlink:href="#C0_0_3e5e115821" y="37.254323"/>
    </g>
    <g clip-path="url(#p00ab98aadd)">
     <use style="fill:none;stroke:#fb8072;" x="241.269816" xlink:href="#C0_0_3e5e115821" y="29.186048"/>
    </g>
    <g clip-path="url(#p00ab98aadd)">
     <use style="fill:none;stroke:#fb8072;" x="242.799281" xlink:href="#C0_0_3e5e115821" y="29.186048"/>
    </g>
    <g clip-path="url(#p00ab98aadd)">
     <use style="fill:none;stroke:#fb8072;" x="244.328747" xlink:href="#C0_0_3e5e115821" y="37.254323"/>
    </g>
    <g clip-path="url(#p00ab98aadd)">
     <use style="fill:none;stroke:#fb8072;" x="245.858212" xlink:href="#C0_0_3e5e115821" y="33.220186"/>
    </g>
    <g clip-path="url(#p00ab98aadd)">
     <use style="fill:none;stroke:#fb8072;" x="247.387678" xlink:href="#C0_0_3e5e115821" y="33.220186"/>
    </g>
    <g clip-path="url(#p00ab98aadd)">
     <use style="fill:none;stroke:#fb8072;" x="248.917143" xlink:href="#C0_0_3e5e115821" y="29.186048"/>
    </g>
    <g clip-path="url(#p00ab98aadd)">
     <use style="fill:none;stroke:#fb8072;" x="250.446609" xlink:href="#C0_0_3e5e115821" y="29.186048"/>
    </g>
    <g clip-path="url(#p00ab98aadd)">
     <use style="fill:none;stroke:#fb8072;" x="251.976074" xlink:href="#C0_0_3e5e115821" y="33.220186"/>
    </g>
    <g clip-path="url(#p00ab98aadd)">
     <use style="fill:none;stroke:#fb8072;" x="253.50554" xlink:href="#C0_0_3e5e115821" y="29.186048"/>
    </g>
    <g clip-path="url(#p00ab98aadd)">
     <use style="fill:none;stroke:#fb8072;" x="255.035005" xlink:href="#C0_0_3e5e115821" y="37.254323"/>
    </g>
    <g clip-path="url(#p00ab98aadd)">
     <use style="fill:none;stroke:#fb8072;" x="256.564471" xlink:href="#C0_0_3e5e115821" y="25.151911"/>
    </g>
    <g clip-path="url(#p00ab98aadd)">
     <use style="fill:none;stroke:#fb8072;" x="258.093936" xlink:href="#C0_0_3e5e115821" y="33.220186"/>
    </g>
    <g clip-path="url(#p00ab98aadd)">
     <use style="fill:none;stroke:#fb8072;" x="259.623402" xlink:href="#C0_0_3e5e115821" y="29.186048"/>
    </g>
    <g clip-path="url(#p00ab98aadd)">
     <use style="fill:none;stroke:#fb8072;" x="261.152867" xlink:href="#C0_0_3e5e115821" y="37.254323"/>
    </g>
    <g clip-path="url(#p00ab98aadd)">
     <use style="fill:none;stroke:#fb8072;" x="262.682333" xlink:href="#C0_0_3e5e115821" y="33.220186"/>
    </g>
    <g clip-path="url(#p00ab98aadd)">
     <use style="fill:none;stroke:#fb8072;" x="264.211798" xlink:href="#C0_0_3e5e115821" y="21.117774"/>
    </g>
    <g clip-path="url(#p00ab98aadd)">
     <use style="fill:none;stroke:#fb8072;" x="265.741264" xlink:href="#C0_0_3e5e115821" y="21.117774"/>
    </g>
    <g clip-path="url(#p00ab98aadd)">
     <use style="fill:none;stroke:#fb8072;" x="267.270729" xlink:href="#C0_0_3e5e115821" y="37.254323"/>
    </g>
    <g clip-path="url(#p00ab98aadd)">
     <use style="fill:none;stroke:#fb8072;" x="268.800195" xlink:href="#C0_0_3e5e115821" y="33.220186"/>
    </g>
    <g clip-path="url(#p00ab98aadd)">
     <use style="fill:none;stroke:#fb8072;" x="270.32966" xlink:href="#C0_0_3e5e115821" y="25.151911"/>
    </g>
    <g clip-path="url(#p00ab98aadd)">
     <use style="fill:none;stroke:#fb8072;" x="271.859126" xlink:href="#C0_0_3e5e115821" y="41.28846"/>
    </g>
    <g clip-path="url(#p00ab98aadd)">
     <use style="fill:none;stroke:#fb8072;" x="273.388591" xlink:href="#C0_0_3e5e115821" y="29.186048"/>
    </g>
    <g clip-path="url(#p00ab98aadd)">
     <use style="fill:none;stroke:#fb8072;" x="274.918057" xlink:href="#C0_0_3e5e115821" y="33.220186"/>
    </g>
    <g clip-path="url(#p00ab98aadd)">
     <use style="fill:none;stroke:#fb8072;" x="276.447522" xlink:href="#C0_0_3e5e115821" y="25.151911"/>
    </g>
    <g clip-path="url(#p00ab98aadd)">
     <use style="fill:none;stroke:#fb8072;" x="277.976988" xlink:href="#C0_0_3e5e115821" y="29.186048"/>
    </g>
    <g clip-path="url(#p00ab98aadd)">
     <use style="fill:none;stroke:#fb8072;" x="279.506453" xlink:href="#C0_0_3e5e115821" y="29.186048"/>
    </g>
    <g clip-path="url(#p00ab98aadd)">
     <use style="fill:none;stroke:#fb8072;" x="281.035919" xlink:href="#C0_0_3e5e115821" y="41.28846"/>
    </g>
    <g clip-path="url(#p00ab98aadd)">
     <use style="fill:none;stroke:#fb8072;" x="282.565384" xlink:href="#C0_0_3e5e115821" y="33.220186"/>
    </g>
    <g clip-path="url(#p00ab98aadd)">
     <use style="fill:none;stroke:#fb8072;" x="284.09485" xlink:href="#C0_0_3e5e115821" y="29.186048"/>
    </g>
    <g clip-path="url(#p00ab98aadd)">
     <use style="fill:none;stroke:#fb8072;" x="285.624315" xlink:href="#C0_0_3e5e115821" y="41.28846"/>
    </g>
    <g clip-path="url(#p00ab98aadd)">
     <use style="fill:none;stroke:#fb8072;" x="287.153781" xlink:href="#C0_0_3e5e115821" y="37.254323"/>
    </g>
    <g clip-path="url(#p00ab98aadd)">
     <use style="fill:none;stroke:#fb8072;" x="288.683246" xlink:href="#C0_0_3e5e115821" y="29.186048"/>
    </g>
    <g clip-path="url(#p00ab98aadd)">
     <use style="fill:none;stroke:#fb8072;" x="290.212712" xlink:href="#C0_0_3e5e115821" y="29.186048"/>
    </g>
    <g clip-path="url(#p00ab98aadd)">
     <use style="fill:none;stroke:#fb8072;" x="291.742177" xlink:href="#C0_0_3e5e115821" y="25.151911"/>
    </g>
    <g clip-path="url(#p00ab98aadd)">
     <use style="fill:none;stroke:#fb8072;" x="293.271643" xlink:href="#C0_0_3e5e115821" y="33.220186"/>
    </g>
    <g clip-path="url(#p00ab98aadd)">
     <use style="fill:none;stroke:#fb8072;" x="294.801108" xlink:href="#C0_0_3e5e115821" y="21.117774"/>
    </g>
    <g clip-path="url(#p00ab98aadd)">
     <use style="fill:none;stroke:#fb8072;" x="296.330574" xlink:href="#C0_0_3e5e115821" y="29.186048"/>
    </g>
    <g clip-path="url(#p00ab98aadd)">
     <use style="fill:none;stroke:#fb8072;" x="297.860039" xlink:href="#C0_0_3e5e115821" y="33.220186"/>
    </g>
    <g clip-path="url(#p00ab98aadd)">
     <use style="fill:none;stroke:#fb8072;" x="299.389505" xlink:href="#C0_0_3e5e115821" y="29.186048"/>
    </g>
    <g clip-path="url(#p00ab98aadd)">
     <use style="fill:none;stroke:#fb8072;" x="300.91897" xlink:href="#C0_0_3e5e115821" y="29.186048"/>
    </g>
    <g clip-path="url(#p00ab98aadd)">
     <use style="fill:none;stroke:#fb8072;" x="302.448436" xlink:href="#C0_0_3e5e115821" y="33.220186"/>
    </g>
    <g clip-path="url(#p00ab98aadd)">
     <use style="fill:none;stroke:#fb8072;" x="303.977902" xlink:href="#C0_0_3e5e115821" y="33.220186"/>
    </g>
    <g clip-path="url(#p00ab98aadd)">
     <use style="fill:none;stroke:#fb8072;" x="305.507367" xlink:href="#C0_0_3e5e115821" y="33.220186"/>
    </g>
    <g clip-path="url(#p00ab98aadd)">
     <use style="fill:none;stroke:#fb8072;" x="307.036833" xlink:href="#C0_0_3e5e115821" y="33.220186"/>
    </g>
    <g clip-path="url(#p00ab98aadd)">
     <use style="fill:none;stroke:#fb8072;" x="308.566298" xlink:href="#C0_0_3e5e115821" y="25.151911"/>
    </g>
    <g clip-path="url(#p00ab98aadd)">
     <use style="fill:none;stroke:#fb8072;" x="310.095764" xlink:href="#C0_0_3e5e115821" y="29.186048"/>
    </g>
    <g clip-path="url(#p00ab98aadd)">
     <use style="fill:none;stroke:#fb8072;" x="311.625229" xlink:href="#C0_0_3e5e115821" y="25.151911"/>
    </g>
    <g clip-path="url(#p00ab98aadd)">
     <use style="fill:none;stroke:#fb8072;" x="313.154695" xlink:href="#C0_0_3e5e115821" y="41.28846"/>
    </g>
    <g clip-path="url(#p00ab98aadd)">
     <use style="fill:none;stroke:#fb8072;" x="314.68416" xlink:href="#C0_0_3e5e115821" y="29.186048"/>
    </g>
    <g clip-path="url(#p00ab98aadd)">
     <use style="fill:none;stroke:#fb8072;" x="316.213626" xlink:href="#C0_0_3e5e115821" y="25.151911"/>
    </g>
    <g clip-path="url(#p00ab98aadd)">
     <use style="fill:none;stroke:#fb8072;" x="317.743091" xlink:href="#C0_0_3e5e115821" y="33.220186"/>
    </g>
    <g clip-path="url(#p00ab98aadd)">
     <use style="fill:none;stroke:#fb8072;" x="319.272557" xlink:href="#C0_0_3e5e115821" y="29.186048"/>
    </g>
    <g clip-path="url(#p00ab98aadd)">
     <use style="fill:none;stroke:#fb8072;" x="320.802022" xlink:href="#C0_0_3e5e115821" y="33.220186"/>
    </g>
    <g clip-path="url(#p00ab98aadd)">
     <use style="fill:none;stroke:#fb8072;" x="322.331488" xlink:href="#C0_0_3e5e115821" y="33.220186"/>
    </g>
    <g clip-path="url(#p00ab98aadd)">
     <use style="fill:none;stroke:#fb8072;" x="323.860953" xlink:href="#C0_0_3e5e115821" y="25.151911"/>
    </g>
    <g clip-path="url(#p00ab98aadd)">
     <use style="fill:none;stroke:#fb8072;" x="325.390419" xlink:href="#C0_0_3e5e115821" y="33.220186"/>
    </g>
    <g clip-path="url(#p00ab98aadd)">
     <use style="fill:none;stroke:#fb8072;" x="326.919884" xlink:href="#C0_0_3e5e115821" y="29.186048"/>
    </g>
    <g clip-path="url(#p00ab98aadd)">
     <use style="fill:none;stroke:#fb8072;" x="328.44935" xlink:href="#C0_0_3e5e115821" y="29.186048"/>
    </g>
    <g clip-path="url(#p00ab98aadd)">
     <use style="fill:none;stroke:#fb8072;" x="329.978815" xlink:href="#C0_0_3e5e115821" y="41.28846"/>
    </g>
    <g clip-path="url(#p00ab98aadd)">
     <use style="fill:none;stroke:#fb8072;" x="331.508281" xlink:href="#C0_0_3e5e115821" y="25.151911"/>
    </g>
    <g clip-path="url(#p00ab98aadd)">
     <use style="fill:none;stroke:#fb8072;" x="333.037746" xlink:href="#C0_0_3e5e115821" y="29.186048"/>
    </g>
    <g clip-path="url(#p00ab98aadd)">
     <use style="fill:none;stroke:#fb8072;" x="334.567212" xlink:href="#C0_0_3e5e115821" y="29.186048"/>
    </g>
    <g clip-path="url(#p00ab98aadd)">
     <use style="fill:none;stroke:#fb8072;" x="336.096677" xlink:href="#C0_0_3e5e115821" y="33.220186"/>
    </g>
    <g clip-path="url(#p00ab98aadd)">
     <use style="fill:none;stroke:#fb8072;" x="337.626143" xlink:href="#C0_0_3e5e115821" y="37.254323"/>
    </g>
    <g clip-path="url(#p00ab98aadd)">
     <use style="fill:none;stroke:#fb8072;" x="339.155608" xlink:href="#C0_0_3e5e115821" y="37.254323"/>
    </g>
    <g clip-path="url(#p00ab98aadd)">
     <use style="fill:none;stroke:#fb8072;" x="340.685074" xlink:href="#C0_0_3e5e115821" y="25.151911"/>
    </g>
    <g clip-path="url(#p00ab98aadd)">
     <use style="fill:none;stroke:#fb8072;" x="342.214539" xlink:href="#C0_0_3e5e115821" y="29.186048"/>
    </g>
    <g clip-path="url(#p00ab98aadd)">
     <use style="fill:none;stroke:#fb8072;" x="343.744005" xlink:href="#C0_0_3e5e115821" y="25.151911"/>
    </g>
    <g clip-path="url(#p00ab98aadd)">
     <use style="fill:none;stroke:#fb8072;" x="345.27347" xlink:href="#C0_0_3e5e115821" y="29.186048"/>
    </g>
    <g clip-path="url(#p00ab98aadd)">
     <use style="fill:none;stroke:#fb8072;" x="346.802936" xlink:href="#C0_0_3e5e115821" y="33.220186"/>
    </g>
    <g clip-path="url(#p00ab98aadd)">
     <use style="fill:none;stroke:#fb8072;" x="348.332401" xlink:href="#C0_0_3e5e115821" y="33.220186"/>
    </g>
    <g clip-path="url(#p00ab98aadd)">
     <use style="fill:none;stroke:#fb8072;" x="349.861867" xlink:href="#C0_0_3e5e115821" y="29.186048"/>
    </g>
    <g clip-path="url(#p00ab98aadd)">
     <use style="fill:none;stroke:#fb8072;" x="351.391332" xlink:href="#C0_0_3e5e115821" y="25.151911"/>
    </g>
    <g clip-path="url(#p00ab98aadd)">
     <use style="fill:none;stroke:#fb8072;" x="352.920798" xlink:href="#C0_0_3e5e115821" y="29.186048"/>
    </g>
    <g clip-path="url(#p00ab98aadd)">
     <use style="fill:none;stroke:#fb8072;" x="354.450263" xlink:href="#C0_0_3e5e115821" y="25.151911"/>
    </g>
    <g clip-path="url(#p00ab98aadd)">
     <use style="fill:none;stroke:#fb8072;" x="355.979729" xlink:href="#C0_0_3e5e115821" y="29.186048"/>
    </g>
    <g clip-path="url(#p00ab98aadd)">
     <use style="fill:none;stroke:#fb8072;" x="357.509194" xlink:href="#C0_0_3e5e115821" y="29.186048"/>
    </g>
    <g clip-path="url(#p00ab98aadd)">
     <use style="fill:none;stroke:#fb8072;" x="359.03866" xlink:href="#C0_0_3e5e115821" y="25.151911"/>
    </g>
    <g clip-path="url(#p00ab98aadd)">
     <use style="fill:none;stroke:#fb8072;" x="360.568125" xlink:href="#C0_0_3e5e115821" y="29.186048"/>
    </g>
    <g clip-path="url(#p00ab98aadd)">
     <use style="fill:none;stroke:#fb8072;" x="362.097591" xlink:href="#C0_0_3e5e115821" y="29.186048"/>
    </g>
    <g clip-path="url(#p00ab98aadd)">
     <use style="fill:none;stroke:#fb8072;" x="363.627056" xlink:href="#C0_0_3e5e115821" y="25.151911"/>
    </g>
    <g clip-path="url(#p00ab98aadd)">
     <use style="fill:none;stroke:#fb8072;" x="365.156522" xlink:href="#C0_0_3e5e115821" y="29.186048"/>
    </g>
    <g clip-path="url(#p00ab98aadd)">
     <use style="fill:none;stroke:#fb8072;" x="366.685987" xlink:href="#C0_0_3e5e115821" y="33.220186"/>
    </g>
    <g clip-path="url(#p00ab98aadd)">
     <use style="fill:none;stroke:#fb8072;" x="368.215453" xlink:href="#C0_0_3e5e115821" y="29.186048"/>
    </g>
    <g clip-path="url(#p00ab98aadd)">
     <use style="fill:none;stroke:#fb8072;" x="369.744918" xlink:href="#C0_0_3e5e115821" y="29.186048"/>
    </g>
    <g clip-path="url(#p00ab98aadd)">
     <use style="fill:none;stroke:#fb8072;" x="371.274384" xlink:href="#C0_0_3e5e115821" y="25.151911"/>
    </g>
    <g clip-path="url(#p00ab98aadd)">
     <use style="fill:none;stroke:#fb8072;" x="372.803849" xlink:href="#C0_0_3e5e115821" y="33.220186"/>
    </g>
   </g>
   <g id="line2d_15">
    <path clip-path="url(#p00ab98aadd)" d="M 53.222031 143.545071 
L 388.022031 143.545071 
" style="fill:none;stroke:#8dd3c7;stroke-dasharray:2.5,4.125;stroke-dashoffset:0;stroke-width:2.5;"/>
   </g>
   <g id="patch_3">
    <path d="M 53.222031 224.64 
L 53.222031 7.2 
" style="fill:none;stroke:#262626;stroke-linecap:square;stroke-linejoin:miter;stroke-width:1.25;"/>
   </g>
   <g id="patch_4">
    <path d="M 388.022031 224.64 
L 388.022031 7.2 
" style="fill:none;stroke:#262626;stroke-linecap:square;stroke-linejoin:miter;stroke-width:1.25;"/>
   </g>
   <g id="patch_5">
    <path d="M 53.222031 224.64 
L 388.022031 224.64 
" style="fill:none;stroke:#262626;stroke-linecap:square;stroke-linejoin:miter;stroke-width:1.25;"/>
   </g>
   <g id="patch_6">
    <path d="M 53.222031 7.2 
L 388.022031 7.2 
" style="fill:none;stroke:#262626;stroke-linecap:square;stroke-linejoin:miter;stroke-width:1.25;"/>
   </g>
   <g id="legend_1">
    <g id="patch_7">
     <path d="M 263.20125 219.14 
L 380.322031 219.14 
Q 382.522031 219.14 382.522031 216.94 
L 382.522031 186.791406 
Q 382.522031 184.591406 380.322031 184.591406 
L 263.20125 184.591406 
Q 261.00125 184.591406 261.00125 186.791406 
L 261.00125 216.94 
Q 261.00125 219.14 263.20125 219.14 
z
" style="fill:#ffffff;opacity:0.8;stroke:#cccccc;stroke-linejoin:miter;"/>
    </g>
    <g id="line2d_16">
     <path d="M 265.40125 193.015 
L 287.40125 193.015 
" style="fill:none;stroke:#8dd3c7;stroke-dasharray:2.5,4.125;stroke-dashoffset:0;stroke-width:2.5;"/>
    </g>
    <g id="line2d_17"/>
    <g id="text_17">
     <!-- Basic tree model -->
     <g style="fill:#262626;" transform="translate(296.20125 196.865)scale(0.11 -0.11)">
      <defs>
       <path d="M 7.328125 0 
L 7.328125 71.578125 
L 34.1875 71.578125 
Q 42.390625 71.578125 47.34375 69.40625 
Q 52.296875 67.234375 55.09375 62.71875 
Q 57.90625 58.203125 57.90625 53.265625 
Q 57.90625 48.6875 55.421875 44.625 
Q 52.9375 40.578125 47.90625 38.09375 
Q 54.390625 36.1875 57.875 31.59375 
Q 61.375 27 61.375 20.75 
Q 61.375 15.71875 59.25 11.390625 
Q 57.125 7.078125 54 4.734375 
Q 50.875 2.390625 46.15625 1.1875 
Q 41.453125 0 34.625 0 
z
M 16.796875 41.5 
L 32.28125 41.5 
Q 38.578125 41.5 41.3125 42.328125 
Q 44.921875 43.40625 46.75 45.890625 
Q 48.578125 48.390625 48.578125 52.15625 
Q 48.578125 55.71875 46.875 58.421875 
Q 45.171875 61.140625 41.984375 62.140625 
Q 38.8125 63.140625 31.109375 63.140625 
L 16.796875 63.140625 
z
M 16.796875 8.453125 
L 34.625 8.453125 
Q 39.203125 8.453125 41.0625 8.796875 
Q 44.34375 9.375 46.53125 10.734375 
Q 48.734375 12.109375 50.140625 14.71875 
Q 51.5625 17.328125 51.5625 20.75 
Q 51.5625 24.75 49.515625 27.703125 
Q 47.46875 30.671875 43.828125 31.859375 
Q 40.1875 33.0625 33.34375 33.0625 
L 16.796875 33.0625 
z
" id="ArialMT-66"/>
       <path d="M 6.640625 61.46875 
L 6.640625 71.578125 
L 15.4375 71.578125 
L 15.4375 61.46875 
z
M 6.640625 0 
L 6.640625 51.859375 
L 15.4375 51.859375 
L 15.4375 0 
z
" id="ArialMT-105"/>
       <path d="M 40.234375 0 
L 40.234375 6.546875 
Q 35.296875 -1.171875 25.734375 -1.171875 
Q 19.53125 -1.171875 14.328125 2.25 
Q 9.125 5.671875 6.265625 11.796875 
Q 3.421875 17.921875 3.421875 25.875 
Q 3.421875 33.640625 6 39.96875 
Q 8.59375 46.296875 13.765625 49.65625 
Q 18.953125 53.03125 25.34375 53.03125 
Q 30.03125 53.03125 33.6875 51.046875 
Q 37.359375 49.078125 39.65625 45.90625 
L 39.65625 71.578125 
L 48.390625 71.578125 
L 48.390625 0 
z
M 12.453125 25.875 
Q 12.453125 15.921875 16.640625 10.984375 
Q 20.84375 6.0625 26.5625 6.0625 
Q 32.328125 6.0625 36.34375 10.765625 
Q 40.375 15.484375 40.375 25.140625 
Q 40.375 35.796875 36.265625 40.765625 
Q 32.171875 45.75 26.171875 45.75 
Q 20.3125 45.75 16.375 40.96875 
Q 12.453125 36.1875 12.453125 25.875 
z
" id="ArialMT-100"/>
      </defs>
      <use xlink:href="#ArialMT-66"/>
      <use x="66.699219" xlink:href="#ArialMT-97"/>
      <use x="122.314453" xlink:href="#ArialMT-115"/>
      <use x="172.314453" xlink:href="#ArialMT-105"/>
      <use x="194.53125" xlink:href="#ArialMT-99"/>
      <use x="244.53125" xlink:href="#ArialMT-32"/>
      <use x="272.314453" xlink:href="#ArialMT-116"/>
      <use x="300.097656" xlink:href="#ArialMT-114"/>
      <use x="333.398438" xlink:href="#ArialMT-101"/>
      <use x="389.013672" xlink:href="#ArialMT-101"/>
      <use x="444.628906" xlink:href="#ArialMT-32"/>
      <use x="472.412109" xlink:href="#ArialMT-109"/>
      <use x="555.712891" xlink:href="#ArialMT-111"/>
      <use x="611.328125" xlink:href="#ArialMT-100"/>
      <use x="666.943359" xlink:href="#ArialMT-101"/>
      <use x="722.558594" xlink:href="#ArialMT-108"/>
     </g>
    </g>
    <g id="PathCollection_2">
     <path d="M 276.40125 212.537344 
C 277.196859 212.537344 277.95999 212.221245 278.52257 211.658664 
C 279.085151 211.096083 279.40125 210.332953 279.40125 209.537344 
C 279.40125 208.741734 279.085151 207.978604 278.52257 207.416023 
C 277.95999 206.853443 277.196859 206.537344 276.40125 206.537344 
C 275.605641 206.537344 274.84251 206.853443 274.27993 207.416023 
C 273.717349 207.978604 273.40125 208.741734 273.40125 209.537344 
C 273.40125 210.332953 273.717349 211.096083 274.27993 211.658664 
C 274.84251 212.221245 275.605641 212.537344 276.40125 212.537344 
z
" style="fill:none;stroke:#fb8072;"/>
    </g>
    <g id="text_18">
     <!-- Bagged trees -->
     <g style="fill:#262626;" transform="translate(296.20125 212.424844)scale(0.11 -0.11)">
      <defs>
       <path d="M 4.984375 -4.296875 
L 13.53125 -5.5625 
Q 14.0625 -9.515625 16.5 -11.328125 
Q 19.78125 -13.765625 25.4375 -13.765625 
Q 31.546875 -13.765625 34.859375 -11.328125 
Q 38.1875 -8.890625 39.359375 -4.5 
Q 40.046875 -1.8125 39.984375 6.78125 
Q 34.234375 0 25.640625 0 
Q 14.9375 0 9.078125 7.71875 
Q 3.21875 15.4375 3.21875 26.21875 
Q 3.21875 33.640625 5.90625 39.90625 
Q 8.59375 46.1875 13.6875 49.609375 
Q 18.796875 53.03125 25.6875 53.03125 
Q 34.859375 53.03125 40.828125 45.609375 
L 40.828125 51.859375 
L 48.921875 51.859375 
L 48.921875 7.03125 
Q 48.921875 -5.078125 46.453125 -10.125 
Q 44 -15.1875 38.640625 -18.109375 
Q 33.296875 -21.046875 25.484375 -21.046875 
Q 16.21875 -21.046875 10.5 -16.875 
Q 4.78125 -12.703125 4.984375 -4.296875 
z
M 12.25 26.859375 
Q 12.25 16.65625 16.296875 11.96875 
Q 20.359375 7.28125 26.46875 7.28125 
Q 32.515625 7.28125 36.609375 11.9375 
Q 40.71875 16.609375 40.71875 26.5625 
Q 40.71875 36.078125 36.5 40.90625 
Q 32.28125 45.75 26.3125 45.75 
Q 20.453125 45.75 16.34375 40.984375 
Q 12.25 36.234375 12.25 26.859375 
z
" id="ArialMT-103"/>
      </defs>
      <use xlink:href="#ArialMT-66"/>
      <use x="66.699219" xlink:href="#ArialMT-97"/>
      <use x="122.314453" xlink:href="#ArialMT-103"/>
      <use x="177.929688" xlink:href="#ArialMT-103"/>
      <use x="233.544922" xlink:href="#ArialMT-101"/>
      <use x="289.160156" xlink:href="#ArialMT-100"/>
      <use x="344.775391" xlink:href="#ArialMT-32"/>
      <use x="372.558594" xlink:href="#ArialMT-116"/>
      <use x="400.341797" xlink:href="#ArialMT-114"/>
      <use x="433.642578" xlink:href="#ArialMT-101"/>
      <use x="489.257812" xlink:href="#ArialMT-101"/>
      <use x="544.873047" xlink:href="#ArialMT-115"/>
     </g>
    </g>
   </g>
  </g>
 </g>
 <defs>
  <clipPath id="p00ab98aadd">
   <rect height="217.44" width="334.8" x="53.222031" y="7.2"/>
  </clipPath>
 </defs>
</svg>
